<?xml version="1.0" encoding="UTF-8" standalone="no"?><svg xmlns="http://www.w3.org/2000/svg" xmlns:xlink="http://www.w3.org/1999/xlink" contentScriptType="application/ecmascript" contentStyleType="text/css" height="655px" preserveAspectRatio="none" style="width:504px;height:655px;" version="1.1" viewBox="0 0 504 655" width="504px" zoomAndPan="magnify"><defs><filter height="300%" id="f7bnyy7jr0ukd" width="300%" x="-1" y="-1"><feGaussianBlur result="blurOut" stdDeviation="2.0"/><feColorMatrix in="blurOut" result="blurOut2" type="matrix" values="0 0 0 0 0 0 0 0 0 0 0 0 0 0 0 0 0 0 .4 0"/><feOffset dx="4.0" dy="4.0" in="blurOut2" result="blurOut3"/><feBlend in="SourceGraphic" in2="blurOut3" mode="normal"/></filter></defs><g><text fill="#000000" font-family="sans-serif" font-size="14" font-weight="bold" lengthAdjust="spacingAndGlyphs" textLength="174" x="161.75" y="23.5352">login Sequence Diagram</text><rect fill="#ADD8E6" height="609.5664" style="stroke: #A80036; stroke-width: 1.0;" width="399" x="94.5" y="34.4883"/><text fill="#000000" font-family="sans-serif" font-size="13" font-weight="bold" lengthAdjust="spacingAndGlyphs" textLength="91" x="248.5" y="47.0566">BelanjaYuk.id</text><rect fill="#FFFFFF" filter="url(#f7bnyy7jr0ukd)" height="391.2793" style="stroke: #A80036; stroke-width: 1.0;" width="10" x="148" y="148.2871"/><line style="stroke: #A80036; stroke-width: 1.0; stroke-dasharray: 5.0,5.0;" x1="26" x2="26" y1="116.9766" y2="557.5664"/><line style="stroke: #A80036; stroke-width: 1.0; stroke-dasharray: 5.0,5.0;" x1="152.5" x2="152.5" y1="116.9766" y2="557.5664"/><line style="stroke: #A80036; stroke-width: 1.0; stroke-dasharray: 5.0,5.0;" x1="308" x2="308" y1="116.9766" y2="557.5664"/><line style="stroke: #A80036; stroke-width: 1.0; stroke-dasharray: 5.0,5.0;" x1="440.5" x2="440.5" y1="116.9766" y2="557.5664"/><text fill="#000000" font-family="sans-serif" font-size="14" lengthAdjust="spacingAndGlyphs" textLength="30" x="8" y="114.0234">user</text><ellipse cx="26" cy="43.4883" fill="#FEFECE" filter="url(#f7bnyy7jr0ukd)" rx="8" ry="8" style="stroke: #A80036; stroke-width: 2.0;"/><path d="M26,51.4883 L26,78.4883 M13,59.4883 L39,59.4883 M26,78.4883 L13,93.4883 M26,78.4883 L39,93.4883 " fill="none" filter="url(#f7bnyy7jr0ukd)" style="stroke: #A80036; stroke-width: 2.0;"/><text fill="#000000" font-family="sans-serif" font-size="14" lengthAdjust="spacingAndGlyphs" textLength="30" x="8" y="570.1016">user</text><ellipse cx="26" cy="583.0547" fill="#FEFECE" filter="url(#f7bnyy7jr0ukd)" rx="8" ry="8" style="stroke: #A80036; stroke-width: 2.0;"/><path d="M26,591.0547 L26,618.0547 M13,599.0547 L39,599.0547 M26,618.0547 L13,633.0547 M26,618.0547 L39,633.0547 " fill="none" filter="url(#f7bnyy7jr0ukd)" style="stroke: #A80036; stroke-width: 2.0;"/><rect fill="#FEFECE" filter="url(#f7bnyy7jr0ukd)" height="30.4883" style="stroke: #A80036; stroke-width: 1.5;" width="105" x="98.5" y="81.4883"/><text fill="#000000" font-family="sans-serif" font-size="14" lengthAdjust="spacingAndGlyphs" textLength="91" x="105.5" y="102.0234">BelanjaYukFE</text><rect fill="#FEFECE" filter="url(#f7bnyy7jr0ukd)" height="30.4883" style="stroke: #A80036; stroke-width: 1.5;" width="105" x="98.5" y="556.5664"/><text fill="#000000" font-family="sans-serif" font-size="14" lengthAdjust="spacingAndGlyphs" textLength="91" x="105.5" y="577.1016">BelanjaYukFE</text><rect fill="#FEFECE" filter="url(#f7bnyy7jr0ukd)" height="30.4883" style="stroke: #A80036; stroke-width: 1.5;" width="112" x="250" y="81.4883"/><text fill="#000000" font-family="sans-serif" font-size="14" lengthAdjust="spacingAndGlyphs" textLength="98" x="257" y="102.0234">AppController</text><rect fill="#FEFECE" filter="url(#f7bnyy7jr0ukd)" height="30.4883" style="stroke: #A80036; stroke-width: 1.5;" width="112" x="250" y="556.5664"/><text fill="#000000" font-family="sans-serif" font-size="14" lengthAdjust="spacingAndGlyphs" textLength="98" x="257" y="577.1016">AppController</text><rect fill="#FEFECE" filter="url(#f7bnyy7jr0ukd)" height="30.4883" style="stroke: #A80036; stroke-width: 1.5;" width="93" x="392.5" y="81.4883"/><text fill="#000000" font-family="sans-serif" font-size="14" lengthAdjust="spacingAndGlyphs" textLength="79" x="399.5" y="102.0234">StaffService</text><rect fill="#FEFECE" filter="url(#f7bnyy7jr0ukd)" height="30.4883" style="stroke: #A80036; stroke-width: 1.5;" width="93" x="392.5" y="556.5664"/><text fill="#000000" font-family="sans-serif" font-size="14" lengthAdjust="spacingAndGlyphs" textLength="79" x="399.5" y="577.1016">StaffService</text><rect fill="#FFFFFF" filter="url(#f7bnyy7jr0ukd)" height="391.2793" style="stroke: #A80036; stroke-width: 1.0;" width="10" x="148" y="148.2871"/><polygon fill="#A80036" points="136,144.2871,146,148.2871,136,152.2871,140,148.2871" style="stroke: #A80036; stroke-width: 1.0;"/><line style="stroke: #A80036; stroke-width: 1.0;" x1="26" x2="142" y1="148.2871" y2="148.2871"/><text fill="#000000" font-family="sans-serif" font-size="13" lengthAdjust="spacingAndGlyphs" textLength="32" x="33" y="143.5449">login</text><polygon fill="#A80036" points="296,173.5977,306,177.5977,296,181.5977,300,177.5977" style="stroke: #A80036; stroke-width: 1.0;"/><line style="stroke: #A80036; stroke-width: 1.0;" x1="158" x2="302" y1="177.5977" y2="177.5977"/><text fill="#000000" font-family="sans-serif" font-size="13" lengthAdjust="spacingAndGlyphs" textLength="95" x="165" y="172.8555">POST: /graphql</text><path d="M163,190.5977 L163,322.5977 L377,322.5977 L377,200.5977 L367,190.5977 L163,190.5977 " fill="#FBFB77" filter="url(#f7bnyy7jr0ukd)" style="stroke: #A80036; stroke-width: 1.0;"/><path d="M367,190.5977 L367,200.5977 L377,200.5977 L367,190.5977 " fill="#FBFB77" style="stroke: #A80036; stroke-width: 1.0;"/><text fill="#000000" font-family="sans-serif" font-size="13" lengthAdjust="spacingAndGlyphs" textLength="191" x="169" y="208.166">content type: application/json</text><text fill="#000000" font-family="sans-serif" font-size="13" lengthAdjust="spacingAndGlyphs" textLength="86" x="169" y="223.4766">request body:</text><text fill="#000000" font-family="sans-serif" font-size="13" lengthAdjust="spacingAndGlyphs" textLength="61" x="185" y="238.7871">mutation{</text><text fill="#000000" font-family="sans-serif" font-size="13" lengthAdjust="spacingAndGlyphs" textLength="173" x="189" y="254.0977">login(username, password){</text><text fill="#000000" font-family="sans-serif" font-size="13" lengthAdjust="spacingAndGlyphs" textLength="78" x="197" y="269.4082">bearerToken</text><text fill="#000000" font-family="sans-serif" font-size="13" lengthAdjust="spacingAndGlyphs" textLength="12" x="197" y="284.7188">id</text><text fill="#000000" font-family="sans-serif" font-size="13" lengthAdjust="spacingAndGlyphs" textLength="4" x="189" y="300.0293">}</text><text fill="#000000" font-family="sans-serif" font-size="13" lengthAdjust="spacingAndGlyphs" textLength="4" x="181" y="315.3398">}</text><line style="stroke: #A80036; stroke-width: 1.0;" x1="308" x2="350" y1="353.3926" y2="353.3926"/><line style="stroke: #A80036; stroke-width: 1.0;" x1="350" x2="350" y1="353.3926" y2="366.3926"/><line style="stroke: #A80036; stroke-width: 1.0;" x1="309" x2="350" y1="366.3926" y2="366.3926"/><polygon fill="#A80036" points="319,362.3926,309,366.3926,319,370.3926,315,366.3926" style="stroke: #A80036; stroke-width: 1.0;"/><text fill="#000000" font-family="sans-serif" font-size="13" lengthAdjust="spacingAndGlyphs" textLength="119" x="315" y="348.6504">Call parseGraphql()</text><polygon fill="#A80036" points="429,419.6689,439,423.6689,429,427.6689,433,423.6689" style="stroke: #A80036; stroke-width: 1.0;"/><line style="stroke: #A80036; stroke-width: 1.0;" x1="308" x2="435" y1="423.6689" y2="423.6689"/><text fill="#000000" font-family="sans-serif" font-size="13" lengthAdjust="spacingAndGlyphs" textLength="68" x="315" y="418.9268">Call login()</text><path d="M205,379.3926 L205,450.3926 L299,450.3926 L299,389.3926 L289,379.3926 L205,379.3926 " fill="#FBFB77" filter="url(#f7bnyy7jr0ukd)" style="stroke: #A80036; stroke-width: 1.0;"/><path d="M289,379.3926 L289,389.3926 L299,389.3926 L289,379.3926 " fill="#FBFB77" style="stroke: #A80036; stroke-width: 1.0;"/><text fill="#000000" font-family="sans-serif" font-size="13" lengthAdjust="spacingAndGlyphs" textLength="53" x="211" y="396.9609">passing:</text><text fill="#000000" font-family="sans-serif" font-size="13" lengthAdjust="spacingAndGlyphs" textLength="60" x="211" y="412.2715">- context</text><text fill="#000000" font-family="sans-serif" font-size="13" lengthAdjust="spacingAndGlyphs" textLength="73" x="211" y="427.582">- username</text><text fill="#000000" font-family="sans-serif" font-size="13" lengthAdjust="spacingAndGlyphs" textLength="72" x="211" y="442.8926">- password</text><polygon fill="#A80036" points="319,476.9453,309,480.9453,319,484.9453,315,480.9453" style="stroke: #A80036; stroke-width: 1.0;"/><line style="stroke: #A80036; stroke-width: 1.0; stroke-dasharray: 2.0,2.0;" x1="313" x2="440" y1="480.9453" y2="480.9453"/><text fill="#000000" font-family="sans-serif" font-size="13" lengthAdjust="spacingAndGlyphs" textLength="106" x="325" y="476.2031">LoginUser model</text><polygon fill="#A80036" points="169,506.2559,159,510.2559,169,514.2559,165,510.2559" style="stroke: #A80036; stroke-width: 1.0;"/><line style="stroke: #A80036; stroke-width: 1.0; stroke-dasharray: 2.0,2.0;" x1="163" x2="307" y1="510.2559" y2="510.2559"/><text fill="#000000" font-family="sans-serif" font-size="13" lengthAdjust="spacingAndGlyphs" textLength="126" x="175" y="505.5137">BearerToken, staffId</text><polygon fill="#A80036" points="37,535.5664,27,539.5664,37,543.5664,33,539.5664" style="stroke: #A80036; stroke-width: 1.0;"/><line style="stroke: #A80036; stroke-width: 1.0; stroke-dasharray: 2.0,2.0;" x1="31" x2="152" y1="539.5664" y2="539.5664"/><text fill="#000000" font-family="sans-serif" font-size="13" lengthAdjust="spacingAndGlyphs" textLength="98" x="43" y="534.8242">view dashboard</text><!--
@startuml
title: login Sequence Diagram
actor user
box "BelanjaYuk.id" #LightBlue
participant BelanjaYukFE
participant AppController
participant StaffService
end box

user -> BelanjaYukFE ++ : login
BelanjaYukFE -> AppController: POST: /graphql
    note right of BelanjaYukFE
    content type: application/json
    request body:
        mutation{
         login(username, password){
           bearerToken
           id
         }
       }
    end note
AppController -> AppController : Call parseGraphql()
AppController -> StaffService: Call login()
    note left
    passing:
    - context
    - username
    - password
    end note
StaffService - -> AppController - - : LoginUser model
AppController - -> BelanjaYukFE - - : BearerToken, staffId
BelanjaYukFE - -> user - - : view dashboard


@enduml

PlantUML version 1.2019.09(Mon Aug 26 23:19:51 WIB 2019)
(GPL source distribution)
Java Runtime: Java(TM) SE Runtime Environment
JVM: Java HotSpot(TM) 64-Bit Server VM
Java Version: 1.8.0_201-b09
Operating System: Mac OS X
OS Version: 10.14.6
Default Encoding: UTF-8
Language: en
Country: ID
--></g></svg>